<mxfile host="app.diagrams.net" modified="2020-12-14T06:39:40.292Z" agent="5.0 (Macintosh; Intel Mac OS X 10_14_6) AppleWebKit/537.36 (KHTML, like Gecko) Chrome/87.0.4280.88 Safari/537.36" etag="gaH-OfoOIomc7GZwIZBK" version="14.0.1" type="github">
  <diagram id="N3h1CjZ4Su9lH0F8JX6H" name="Page-1">
    <mxGraphModel dx="786" dy="546" grid="1" gridSize="10" guides="1" tooltips="1" connect="1" arrows="1" fold="1" page="1" pageScale="1" pageWidth="850" pageHeight="1100" math="0" shadow="0" extFonts="Permanent Marker^https://fonts.googleapis.com/css?family=Permanent+Marker">
      <root>
        <mxCell id="0" />
        <mxCell id="1" parent="0" />
        <mxCell id="G5OVLPf6TFAkderQjJgi-16" style="edgeStyle=orthogonalEdgeStyle;rounded=0;orthogonalLoop=1;jettySize=auto;html=1;exitX=0.5;exitY=0;exitDx=0;exitDy=0;elbow=vertical;curved=1;" edge="1" parent="1" source="G5OVLPf6TFAkderQjJgi-1" target="G5OVLPf6TFAkderQjJgi-17">
          <mxGeometry relative="1" as="geometry">
            <mxPoint x="390" y="130" as="targetPoint" />
            <Array as="points">
              <mxPoint x="390" y="150" />
              <mxPoint x="390" y="150" />
            </Array>
          </mxGeometry>
        </mxCell>
        <mxCell id="G5OVLPf6TFAkderQjJgi-21" style="edgeStyle=orthogonalEdgeStyle;curved=1;rounded=0;orthogonalLoop=1;jettySize=auto;html=1;exitX=1;exitY=0;exitDx=0;exitDy=0;" edge="1" parent="1" source="G5OVLPf6TFAkderQjJgi-1">
          <mxGeometry relative="1" as="geometry">
            <mxPoint x="590" y="190" as="targetPoint" />
          </mxGeometry>
        </mxCell>
        <mxCell id="G5OVLPf6TFAkderQjJgi-26" style="edgeStyle=orthogonalEdgeStyle;curved=1;rounded=0;orthogonalLoop=1;jettySize=auto;html=1;exitX=1;exitY=0.5;exitDx=0;exitDy=0;" edge="1" parent="1" source="G5OVLPf6TFAkderQjJgi-1">
          <mxGeometry relative="1" as="geometry">
            <mxPoint x="590" y="330" as="targetPoint" />
          </mxGeometry>
        </mxCell>
        <mxCell id="G5OVLPf6TFAkderQjJgi-36" style="edgeStyle=orthogonalEdgeStyle;curved=1;rounded=0;orthogonalLoop=1;jettySize=auto;html=1;exitX=0;exitY=0.5;exitDx=0;exitDy=0;" edge="1" parent="1" source="G5OVLPf6TFAkderQjJgi-1">
          <mxGeometry relative="1" as="geometry">
            <mxPoint x="160" y="210" as="targetPoint" />
          </mxGeometry>
        </mxCell>
        <mxCell id="G5OVLPf6TFAkderQjJgi-41" style="edgeStyle=orthogonalEdgeStyle;curved=1;rounded=0;orthogonalLoop=1;jettySize=auto;html=1;exitX=0;exitY=1;exitDx=0;exitDy=0;" edge="1" parent="1" source="G5OVLPf6TFAkderQjJgi-1">
          <mxGeometry relative="1" as="geometry">
            <mxPoint x="180" y="360" as="targetPoint" />
          </mxGeometry>
        </mxCell>
        <mxCell id="G5OVLPf6TFAkderQjJgi-1" value="Love In Shanghai" style="ellipse;whiteSpace=wrap;html=1;aspect=fixed;" vertex="1" parent="1">
          <mxGeometry x="340" y="220" width="100" height="100" as="geometry" />
        </mxCell>
        <mxCell id="G5OVLPf6TFAkderQjJgi-7" value="" style="endArrow=classic;html=1;" edge="1" parent="1">
          <mxGeometry width="50" height="50" relative="1" as="geometry">
            <mxPoint x="380" y="320" as="sourcePoint" />
            <mxPoint x="370" y="420" as="targetPoint" />
          </mxGeometry>
        </mxCell>
        <mxCell id="G5OVLPf6TFAkderQjJgi-8" value="Web info" style="text;html=1;strokeColor=none;fillColor=none;align=center;verticalAlign=middle;whiteSpace=wrap;rounded=0;" vertex="1" parent="1">
          <mxGeometry x="370" y="370" width="40" height="20" as="geometry" />
        </mxCell>
        <mxCell id="G5OVLPf6TFAkderQjJgi-10" value="Web Visitors" style="swimlane;" vertex="1" parent="1">
          <mxGeometry x="315" y="420" width="110" height="60" as="geometry" />
        </mxCell>
        <mxCell id="G5OVLPf6TFAkderQjJgi-11" value="" style="curved=1;endArrow=classic;html=1;" edge="1" parent="1" target="G5OVLPf6TFAkderQjJgi-1">
          <mxGeometry width="50" height="50" relative="1" as="geometry">
            <mxPoint x="425" y="460" as="sourcePoint" />
            <mxPoint x="475" y="410" as="targetPoint" />
            <Array as="points">
              <mxPoint x="475" y="460" />
              <mxPoint x="425" y="410" />
            </Array>
          </mxGeometry>
        </mxCell>
        <mxCell id="G5OVLPf6TFAkderQjJgi-14" value="Web inquiry" style="text;html=1;strokeColor=none;fillColor=none;align=center;verticalAlign=middle;whiteSpace=wrap;rounded=0;" vertex="1" parent="1">
          <mxGeometry x="420" y="360" width="40" height="20" as="geometry" />
        </mxCell>
        <mxCell id="G5OVLPf6TFAkderQjJgi-18" style="edgeStyle=orthogonalEdgeStyle;curved=1;rounded=0;orthogonalLoop=1;jettySize=auto;html=1;exitX=0.75;exitY=1;exitDx=0;exitDy=0;entryX=0.67;entryY=0.04;entryDx=0;entryDy=0;entryPerimeter=0;" edge="1" parent="1" source="G5OVLPf6TFAkderQjJgi-17" target="G5OVLPf6TFAkderQjJgi-1">
          <mxGeometry relative="1" as="geometry" />
        </mxCell>
        <mxCell id="G5OVLPf6TFAkderQjJgi-17" value="Most Recommended Table" style="rounded=0;whiteSpace=wrap;html=1;" vertex="1" parent="1">
          <mxGeometry x="350" y="70" width="110" height="40" as="geometry" />
        </mxCell>
        <mxCell id="G5OVLPf6TFAkderQjJgi-19" value="Timely&lt;br&gt;inquiry" style="text;html=1;strokeColor=none;fillColor=none;align=center;verticalAlign=middle;whiteSpace=wrap;rounded=0;" vertex="1" parent="1">
          <mxGeometry x="350" y="150" width="40" height="20" as="geometry" />
        </mxCell>
        <mxCell id="G5OVLPf6TFAkderQjJgi-20" value="Timely info" style="text;html=1;strokeColor=none;fillColor=none;align=center;verticalAlign=middle;whiteSpace=wrap;rounded=0;" vertex="1" parent="1">
          <mxGeometry x="424" y="161" width="40" height="20" as="geometry" />
        </mxCell>
        <mxCell id="G5OVLPf6TFAkderQjJgi-24" style="edgeStyle=orthogonalEdgeStyle;curved=1;rounded=0;orthogonalLoop=1;jettySize=auto;html=1;exitX=0;exitY=0.5;exitDx=0;exitDy=0;entryX=1;entryY=0;entryDx=0;entryDy=0;" edge="1" parent="1" source="G5OVLPf6TFAkderQjJgi-22" target="G5OVLPf6TFAkderQjJgi-1">
          <mxGeometry relative="1" as="geometry" />
        </mxCell>
        <mxCell id="G5OVLPf6TFAkderQjJgi-22" value="Shanghai Map" style="rounded=0;whiteSpace=wrap;html=1;" vertex="1" parent="1">
          <mxGeometry x="540" y="150" width="110" height="40" as="geometry" />
        </mxCell>
        <mxCell id="G5OVLPf6TFAkderQjJgi-23" value="Places Inquiry" style="text;html=1;strokeColor=none;fillColor=none;align=center;verticalAlign=middle;whiteSpace=wrap;rounded=0;" vertex="1" parent="1">
          <mxGeometry x="550" y="230" width="40" height="20" as="geometry" />
        </mxCell>
        <mxCell id="G5OVLPf6TFAkderQjJgi-25" value="Places Iocation" style="text;html=1;strokeColor=none;fillColor=none;align=center;verticalAlign=middle;whiteSpace=wrap;rounded=0;" vertex="1" parent="1">
          <mxGeometry x="490" y="141" width="40" height="20" as="geometry" />
        </mxCell>
        <mxCell id="G5OVLPf6TFAkderQjJgi-31" style="edgeStyle=orthogonalEdgeStyle;curved=1;rounded=0;orthogonalLoop=1;jettySize=auto;html=1;exitX=0.25;exitY=1;exitDx=0;exitDy=0;" edge="1" parent="1" source="G5OVLPf6TFAkderQjJgi-27">
          <mxGeometry relative="1" as="geometry">
            <mxPoint x="439" y="290" as="targetPoint" />
          </mxGeometry>
        </mxCell>
        <mxCell id="G5OVLPf6TFAkderQjJgi-27" value="Comparison Function" style="rounded=0;whiteSpace=wrap;html=1;" vertex="1" parent="1">
          <mxGeometry x="570" y="330" width="110" height="40" as="geometry" />
        </mxCell>
        <mxCell id="G5OVLPf6TFAkderQjJgi-28" value="Seek Comparison" style="text;html=1;strokeColor=none;fillColor=none;align=center;verticalAlign=middle;whiteSpace=wrap;rounded=0;" vertex="1" parent="1">
          <mxGeometry x="560" y="270" width="60" height="20" as="geometry" />
        </mxCell>
        <mxCell id="G5OVLPf6TFAkderQjJgi-29" value="Comparison&lt;br&gt;Feedback" style="text;html=1;strokeColor=none;fillColor=none;align=center;verticalAlign=middle;whiteSpace=wrap;rounded=0;" vertex="1" parent="1">
          <mxGeometry x="443" y="310" width="60" height="20" as="geometry" />
        </mxCell>
        <mxCell id="G5OVLPf6TFAkderQjJgi-34" style="edgeStyle=orthogonalEdgeStyle;curved=1;rounded=0;orthogonalLoop=1;jettySize=auto;html=1;exitX=0.75;exitY=1;exitDx=0;exitDy=0;entryX=0.03;entryY=0.28;entryDx=0;entryDy=0;entryPerimeter=0;" edge="1" parent="1" source="G5OVLPf6TFAkderQjJgi-33" target="G5OVLPf6TFAkderQjJgi-1">
          <mxGeometry relative="1" as="geometry" />
        </mxCell>
        <mxCell id="G5OVLPf6TFAkderQjJgi-33" value="Administrator" style="swimlane;" vertex="1" parent="1">
          <mxGeometry x="200" y="20" width="110" height="60" as="geometry" />
        </mxCell>
        <mxCell id="G5OVLPf6TFAkderQjJgi-35" value="Update&lt;br&gt;info" style="text;html=1;strokeColor=none;fillColor=none;align=center;verticalAlign=middle;whiteSpace=wrap;rounded=0;" vertex="1" parent="1">
          <mxGeometry x="290" y="121" width="40" height="20" as="geometry" />
        </mxCell>
        <mxCell id="G5OVLPf6TFAkderQjJgi-39" style="edgeStyle=orthogonalEdgeStyle;curved=1;rounded=0;orthogonalLoop=1;jettySize=auto;html=1;exitX=1;exitY=0.25;exitDx=0;exitDy=0;entryX=-0.01;entryY=0.44;entryDx=0;entryDy=0;entryPerimeter=0;" edge="1" parent="1" source="G5OVLPf6TFAkderQjJgi-37" target="G5OVLPf6TFAkderQjJgi-1">
          <mxGeometry relative="1" as="geometry" />
        </mxCell>
        <mxCell id="G5OVLPf6TFAkderQjJgi-37" value="&amp;nbsp;Personalized Categorization" style="rounded=0;whiteSpace=wrap;html=1;" vertex="1" parent="1">
          <mxGeometry x="110" y="170" width="110" height="40" as="geometry" />
        </mxCell>
        <mxCell id="G5OVLPf6TFAkderQjJgi-38" value="Special inquiry" style="text;html=1;strokeColor=none;fillColor=none;align=center;verticalAlign=middle;whiteSpace=wrap;rounded=0;" vertex="1" parent="1">
          <mxGeometry x="210" y="270" width="40" height="20" as="geometry" />
        </mxCell>
        <mxCell id="G5OVLPf6TFAkderQjJgi-40" value="Special info" style="text;html=1;strokeColor=none;fillColor=none;align=center;verticalAlign=middle;whiteSpace=wrap;rounded=0;" vertex="1" parent="1">
          <mxGeometry x="270" y="180" width="40" height="20" as="geometry" />
        </mxCell>
        <mxCell id="G5OVLPf6TFAkderQjJgi-45" style="edgeStyle=orthogonalEdgeStyle;curved=1;rounded=0;orthogonalLoop=1;jettySize=auto;html=1;exitX=0.75;exitY=1;exitDx=0;exitDy=0;entryX=0;entryY=1;entryDx=0;entryDy=0;" edge="1" parent="1" source="G5OVLPf6TFAkderQjJgi-42" target="G5OVLPf6TFAkderQjJgi-1">
          <mxGeometry relative="1" as="geometry">
            <mxPoint x="350" y="310" as="targetPoint" />
          </mxGeometry>
        </mxCell>
        <mxCell id="G5OVLPf6TFAkderQjJgi-42" value="Restaurants" style="rounded=0;whiteSpace=wrap;html=1;" vertex="1" parent="1">
          <mxGeometry x="120" y="360" width="110" height="40" as="geometry" />
        </mxCell>
        <mxCell id="G5OVLPf6TFAkderQjJgi-43" value="Restaurants&lt;br&gt;inquiry" style="text;html=1;strokeColor=none;fillColor=none;align=center;verticalAlign=middle;whiteSpace=wrap;rounded=0;" vertex="1" parent="1">
          <mxGeometry x="231" y="321" width="40" height="20" as="geometry" />
        </mxCell>
        <mxCell id="G5OVLPf6TFAkderQjJgi-46" value="Restaurants&lt;br&gt;info" style="text;html=1;strokeColor=none;fillColor=none;align=center;verticalAlign=middle;whiteSpace=wrap;rounded=0;" vertex="1" parent="1">
          <mxGeometry x="260" y="390" width="40" height="20" as="geometry" />
        </mxCell>
      </root>
    </mxGraphModel>
  </diagram>
</mxfile>
